# AST/ASF file generated using VICON BodyLanguage
# -----------------------------------------------
:version 1.10
:name VICON
:units
  mass 1.0
  length 0.45
  angle deg
:documentation
   .ast/.asf automatically generated from VICON data using
   VICON BodyBuilder and BodyLanguage model FoxedUp or BRILLIANT.MOD
:root
   order TX TY TZ RX RY RZ
   axis XYZ
   position 0 0 0  
   orientation 0 0 0 
:bonedata
  begin
     id 1 
     name lhipjoint
     direction 0.630305 -0.712092 0.309259 
     length 2.29033 
     axis 0 0 0  XYZ
  end
  begin
     id 2 
     name lfemur
     direction 0.34202 -0.939693 0  
     length 6.43538  
     axis 0 0 20  XYZ
    dof rx ry rz
    limits (-160.0 20.0)
           (-70.0 70.0)
           (-60.0 70.0)
  end
  begin
     id 3 
     name ltibia
     direction 0.34202 -0.939693 0   
     length 7.43097   
     axis 0 0 20   XYZ
    dof rx
    limits (-10.0 170.0)
  end
  begin
     id 4 
     name lfoot
     direction 0.0334653 -0.0919451 0.995202   
     length 1.78438   
     axis -90 7.62852e-016 20   XYZ
    dof rx rz
    limits (-45.0 90.0)
           (-70.0 20.0)
  end
  begin
     id 5 
     name ltoes
     direction 1.53535e-011 -4.21933e-011 1   
     length 0.90832   
     axis -90 7.62852e-016 20   XYZ
    dof rx
    limits (-90.0 20.0)
  end
  begin
     id 6 
     name rhipjoint
     direction -0.682059 -0.67077 0.291312   
     length 2.43143  
     axis 0 0 0  XYZ 
  end
  begin
     id 7 
     name rfemur
     direction -0.34202 -0.939693 0   
     length 6.63488   
     axis 0 0 -20   XYZ
    dof rx ry rz
    limits (-160.0 20.0)
           (-70.0 70.0)
           (-70.0 60.0)
  end
  begin
     id 8 
     name rtibia
     direction -0.34202 -0.939693 0   
     length 6.86532   
     axis 0 0 -20   XYZ
    dof rx
    limits (-10.0 170.0)
 end
 begin
     id 9 
     name rfoot
     direction -0.105199 -0.289033 0.951521   
     length 1.77126  
     axis -90 -7.62852e-016 -20   XYZ
    dof rx rz
    limits (-45.0 90.0)
           (-20.0 70.0)
  end
  begin
     id 10 
     name rtoes
     direction -1.53551e-011 -4.21978e-011 1   
     length 0.889273   
     axis -90 -7.62852e-016 -20   XYZ
    dof rx
    limits (-90.0 20.0)
  end
  begin
     id 11 
     name lowerback
     direction -0.0514305 0.998089 0.034245   
     length 2.02077   
     axis 0 0 0   XYZ
    dof rx ry rz
    limits (-20.0 45.0)
           (-30.0 30.0)
           (-30.0 30.0)
  end
  begin
     id 12 
     name upperback
     direction 0.0203189 0.999449 -0.0262315   
     length 2.01413   
     axis 0 0 0   XYZ
    dof rx ry rz
    limits (-20.0 45.0)
           (-30.0 30.0)
           (-30.0 30.0)
  end
  begin
     id 13 
     name thorax
     direction 0.0452736 0.998142 -0.0407729   
     length 2.02986   
     axis 0 0 0   XYZ
    dof rx ry rz
    limits (-20.0 45.0)
           (-30.0 30.0)
           (-30.0 30.0)
  end
  begin
     id 14 
     name lowerneck
     direction -0.0180464 0.999645 -0.0195774   
     length 1.59034   
     axis 0 0 0   XYZ
    dof rx ry rz
    limits (-20.0 45.0)
           (-30.0 30.0)
           (-30.0 30.0)
  end
  begin
     id 15 
     name upperneck
     direction 0.0732272 0.979935 -0.18538   
     length 1.57486   
     axis 0 0 0   XYZ
    dof rx ry rz
    limits (-20.0 45.0)
           (-30.0 30.0)
           (-30.0 30.0)
  end
  begin
     id 16
     name head
     direction 0.0252963 0.997909 -0.059472  
     length 1.60334  
     axis 0 0 0   XYZ
    dof rx ry rz
    limits (-20.0 45.0)
           (-30.0 30.0)
           (-30.0 30.0)
  end
  begin
     id 17 
     name lclavicle
     direction 0.943819 0.330449 0.00315172  
     length 3.50322  
     axis 0 0 0   XYZ
    dof ry rz
    limits (-20.0 10.0)
           (0.0 20.0)
  end
  begin
     id 18 
     name lhumerus
     direction 1 -4.48949e-011 2.22502e-028   
     length 4.63208   
     axis 180 -30 -90   XYZ
    dof rx ry rz
    limits (-60.0 90.0)
           (-90.0 90.0)
           (-90.0 90.0)
  end
  begin
     id 19
     name lradius
     direction 1 -4.48967e-011 -4.10197e-027   
     length 3.41924   
     axis 180 -30 -90   XYZ
    dof rx
    limits (-10.0 170.0)
  end
  begin
     id 20
     name lwrist
     direction 1 -4.48987e-011 -1.24264e-027   
     length 1.70962   
     axis 2.50585e-015 90 90   XYZ
    dof ry
    limits (-180.0 0.0)
 end
  begin
     id 21 
     name lhand
     direction 1 -4.48983e-011 -2.48528e-027   
     length 0.62537   
     axis 1.58582e-015 90 90   XYZ
    dof rx rz
    limits (-90.0 90.0)
           (-45.0 45.0)
  end
  begin
     id 22 
     name lfingers
     direction 1 -4.48896e-011 -4.97056e-027   
     length 0.50419   
     axis 3.17164e-015 90 90   XYZ
    dof rx
    limits (0.0 90.0)
  end
  begin
     id 23
     name lthumb
     direction 0.707107 -6.34803e-011 0.707107   
     length 0.723919   
     axis -90 45 2.85299e-015   XYZ
    dof rx rz
    limits (-45.0 45.0)
           (-45.0 45.0)
  end
  begin
     id 24 
     name rclavicle
     direction -0.964499 0.260664 -0.0423695   
     length 3.91997  
     axis 0 0 0   XYZ 
    dof ry rz
    limits (-10.0 20.0)
           (-20.0 0.0)
  end
  begin
     id 25 
     name rhumerus
     direction -1 -4.48957e-011 -1.98656e-027  
     length 4.4064   
     axis 180 30 90   XYZ
    dof rx ry rz
    limits (-90.0 60.0)
           (-90.0 90.0)
           (-90.0 90.0)
  end
  begin
     id 26 
     name rradius
     direction -1 -4.48968e-011 1.96972e-027   
     length 3.44675   
     axis 180 30 90   XYZ
    dof rx
    limits (-10.0 170.0)
  end
  begin
     id 27 
     name rwrist
     direction -1 -4.48974e-011 -1.24264e-027   
     length 1.72338   
     axis 2.50585e-015 -90 -90   XYZ
    dof ry
    limits (-180.0 0.0)
  end
  begin
     id 28
     name rhand
     direction -1 -4.48901e-011 -2.48528e-027   
     length 0.513674   
     axis 1.58582e-015 -90 -90   XYZ
    dof rx rz
    limits (-90.0 90.0)
           (-45.0 45.0)
  end
  begin
     id 29
     name rfingers
     direction -1 -4.48946e-011 -4.97056e-027   
     length 0.414137   
     axis 3.17164e-015 -90 -90   XYZ
    dof rx
    limits (0.0 90.0)
  end
  begin
     id 30
     name rthumb
     direction -0.707107 -6.34859e-011 0.707107   
     length 0.59462   
     axis -90 -45 -2.85299e-015   XYZ
    dof rx rz
    limits (-45.0 45.0)
           (-45.0 45.0)
  end
:hierarchy
  begin
    root lhipjoint rhipjoint lowerback
    lhipjoint lfemur
    lfemur ltibia
    ltibia lfoot
    lfoot ltoes
    rhipjoint rfemur
    rfemur rtibia
    rtibia rfoot
    rfoot rtoes
    lowerback upperback
    upperback thorax
    thorax lowerneck lclavicle rclavicle
    lowerneck upperneck
    upperneck head
    lclavicle lhumerus
    lhumerus lradius
    lradius lwrist
    lwrist lhand lthumb
    lhand lfingers
    rclavicle rhumerus
    rhumerus rradius
    rradius rwrist
    rwrist rhand rthumb
    rhand rfingers
  end

#!OML:ASF E:\inclinewalkrobotboard\Project 1\Capture day 1\Session 1\subject1.ASF
:FULLY-SPECIFIED
:DEGREES
142
root 11.0419 15.204 9.86698 13.0328 -72.9978 3.97925
lowerback 4.25486 1.59064 -8.29276
upperback 0.900411 1.67562 -1.69554
thorax -1.64483 0.851893 2.79384
lowerneck -0.618704 10.7674 -1.8473
upperneck -8.71188 14.4096 0.205104
head -2.83437 7.20811 0.0234212
rclavicle -5.76476e-014 4.69132e-014
rhumerus -57.2857 -36.655 -43.3431
rradius 86.088
rwrist -30.8709
rhand -14.5994 -24.2292
rfingers 7.12502
rthumb 11.5511 -53.8909
lclavicle -5.76476e-014 4.69132e-014
lhumerus -23.0848 -56.4025 110.899
lradius 92.7667
lwrist -8.02431
lhand -55.5814 -37.1941
lfingers 7.12502
lthumb -27.9361 -9.25233
rfemur -3.24345 11.7354 -7.12525
rtibia 15.1605
rfoot -18.951 -25.9803
rtoes -11.0397
lfemur -49.3531 6.79504 -9.02228
ltibia 46.6359
lfoot -15.8321 3.93806
ltoes -67.2758
143
root 11.0638 15.2717 10.0006 14.6851 -72.5412 2.85091
lowerback 4.77937 1.80444 -8.35395
upperback 1.06437 1.90712 -1.69686
thorax -1.79585 0.966684 2.79944
lowerneck -0.184284 10.8563 -1.44199
upperneck -9.60752 14.5021 -0.346813
head -3.1402 7.25284 -0.269426
rclavicle -1.27222e-014 -2.38542e-015
rhumerus -57.7027 -37.8356 -42.19
rradius 84.3173
rwrist -31.7849
rhand -13.986 -23.913
rfingers 7.12502
rthumb 12.1426 -53.5407
lclavicle -1.27222e-014 -2.38542e-015
lhumerus -22.3618 -57.5663 110.877
lradius 92.6556
lwrist -7.7996
lhand -55.3341 -37.3789
lfingers 7.12502
lthumb -27.6997 -9.39894
rfemur -3.43963 11.9617 -7.19914
rtibia 14.4803
rfoot -16.175 -27.1086
rtoes -9.28839
lfemur -49.6485 6.24576 -9.18566
ltibia 45.8763
lfoot -15.728 4.11447
ltoes -67.486
144
root 11.0854 15.3373 10.1256 17.0289 -72.147 1.08714
lowerback 5.14762 1.75641 -8.31403
upperback 1.07808 1.81615 -1.43217
thorax -1.98493 0.929779 3.04856
lowerneck 0.0661988 10.941 -1.65657
upperneck -10.0524 14.6119 -0.385377
head -3.35632 7.31306 -0.289004
rclavicle 4.63168e-014 7.95139e-016
rhumerus -57.4515 -38.1502 -41.5064
rradius 82.8033
rwrist -32.7895
rhand -13.4582 -23.7914
rfingers 7.12502
rthumb 12.6515 -53.3882
lclavicle 4.63168e-014 7.95139e-016
lhumerus -21.6971 -57.5429 110.882
lradius 92.6434
lwrist -7.94242
lhand -55.1959 -37.7728
lfingers 7.12502
lthumb -27.5675 -9.7716
rfemur -3.798 12.1832 -7.15991
rtibia 13.7472
rfoot -13.2325 -28.0973
rtoes -9.43057
lfemur -50.048 5.6881 -9.00118
ltibia 45.246
lfoot -15.8005 4.45357
ltoes -67.5748
145
root 11.1086 15.4003 10.2433 19.6097 -71.8207 -0.872994
lowerback 5.39791 1.62161 -8.19938
upperback 1.10001 1.6312 -1.09229
thorax -2.08745 0.843293 3.34623
lowerneck 0.450982 11.1613 -2.02706
upperneck -10.7161 14.8922 -0.491214
head -3.68686 7.46471 -0.332697
rclavicle -5.76476e-015 -5.24792e-014
rhumerus -56.821 -38.2583 -41.0772
rradius 81.3995
rwrist -33.4267
rhand -13.1801 -23.5162
rfingers 7.12502
rthumb 12.9196 -53.0962
lclavicle -5.76476e-015 -5.24792e-014
lhumerus -20.9644 -57.1448 110.738
lradius 92.7212
lwrist -8.36197
lhand -55.1857 -37.9554
lfingers 7.12502
lthumb -27.5578 -9.95269
rfemur -4.36189 12.4568 -7.10526
rtibia 13.0431
rfoot -9.78701 -29.0069
rtoes -10.6253
lfemur -50.5584 5.23741 -8.67955
ltibia 44.7953
lfoot -15.9776 4.81316
ltoes -67.6237
146
root 11.1274 15.4554 10.3569 21.8485 -71.5681 -2.53878
lowerback 5.60177 1.47586 -8.16253
upperback 1.14576 1.43384 -0.736641
thorax -2.13828 0.748263 3.7077
lowerneck 0.608965 11.2477 -2.56081
upperneck -11.1964 15.0155 -0.262368
head -3.95851 7.53313 -0.221994
rclavicle -1.19271e-015 -4.69132e-014
rhumerus -56.1502 -38.3892 -40.6848
rradius 80.1983
rwrist -33.8694
rhand -13.3853 -23.2683
rfingers 7.12502
rthumb 12.7218 -52.8608
lclavicle -1.19271e-015 -4.69132e-014
lhumerus -20.3868 -56.6022 110.827
lradius 92.7477
lwrist -8.96487
lhand -55.3099 -37.9727
lfingers 7.12502
lthumb -27.6765 -9.98896
rfemur -4.93369 12.8604 -7.14563
rtibia 12.4023
rfoot -6.71841 -29.3973
rtoes -12.933
lfemur -50.9991 4.91418 -8.46597
ltibia 44.4213
lfoot -16.0934 5.12892
ltoes -67.7205
147
root 11.1406 15.4989 10.4612 23.891 -71.4482 -4.17044
lowerback 5.8535 1.36401 -8.2484
upperback 1.1722 1.26869 -0.3636
thorax -2.24085 0.672291 4.15409
lowerneck 0.943677 11.3478 -2.9999
upperneck -11.6508 15.1517 -0.0848412
head -4.2463 7.60577 -0.152546
rclavicle -8.34896e-015 3.97569e-015
rhumerus -55.5607 -38.4063 -40.251
rradius 79.1552
rwrist -34.5755
rhand -13.5123 -23.0368
rfingers 7.12502
rthumb 12.5994 -52.6368
lclavicle -8.34896e-015 3.97569e-015
lhumerus -20.0145 -55.917 111.166
lradius 92.7417
lwrist -9.44659
lhand -55.5568 -37.8344
lfingers 7.12502
lthumb -27.9126 -9.88881
rfemur -5.43284 13.2614 -7.20233
rtibia 11.8741
rfoot -5.18843 -28.6487
rtoes -13.3319
lfemur -51.2314 4.86518 -8.27829
ltibia 44.036
lfoot -16.1383 5.40564
ltoes -67.8569
148
root 11.151 15.534 10.5591 25.444 -71.3095 -5.50627
lowerback 6.24991 1.52227 -8.18772
upperback 1.2882 1.44957 -0.280515
thorax -2.36662 0.762462 4.18541
lowerneck 1.06644 11.1424 -2.80979
upperneck -11.9803 14.9118 0.158212
head -4.39117 7.46402 -0.115541
rclavicle 2.26615e-014 1.03368e-014
rhumerus -55.9478 -39.1165 -39.2547
rradius 78.2976
rwrist -35.4353
rhand -13.2164 -22.7063
rfingers 7.12502
rthumb 12.8845 -52.2886
lclavicle 2.26615e-014 1.03368e-014
lhumerus -19.9331 -56.1694 111.634
lradius 92.8058
lwrist -9.55912
lhand -55.3913 -37.806
lfingers 7.12502
lthumb -27.7543 -9.8348
rfemur -5.71426 13.4469 -7.27118
rtibia 11.3965
rfoot -2.8204 -29.0743
rtoes -14.4967
lfemur -51.281 4.82265 -8.15497
ltibia 43.6446
lfoot -16.1906 5.63497
ltoes -67.9449
